<svg width="123" height="30" viewBox="0 0 123 30" fill="none" xmlns="http://www.w3.org/2000/svg">
<path d="M0.988037 0.497236H7.70074V24.0331H22.2449V29.5028H0.988037V0.497236Z" fill="white"/>
<path d="M39.557 30C36.5459 30 33.8249 29.3508 31.394 28.0525C28.9907 26.7541 27.0984 24.9724 25.7172 22.7072C24.3636 20.4144 23.6868 17.8453 23.6868 15C23.6868 12.1547 24.3636 9.59945 25.7172 7.33425C27.0984 5.04143 28.9907 3.24586 31.394 1.94751C33.8249 0.649171 36.5459 0 39.557 0C42.568 0 45.2752 0.649171 47.6785 1.94751C50.0818 3.24586 51.9741 5.04143 53.3553 7.33425C54.7365 9.59945 55.4271 12.1547 55.4271 15C55.4271 17.8453 54.7365 20.4144 53.3553 22.7072C51.9741 24.9724 50.0818 26.7541 47.6785 28.0525C45.2752 29.3508 42.568 30 39.557 30ZM39.557 24.2818C41.2697 24.2818 42.8166 23.895 44.1979 23.1215C45.5791 22.3204 46.6564 21.2155 47.4299 19.8066C48.231 18.3978 48.6316 16.7956 48.6316 15C48.6316 13.2044 48.231 11.6022 47.4299 10.1934C46.6564 8.78453 45.5791 7.69337 44.1979 6.91989C42.8166 6.11878 41.2697 5.71823 39.557 5.71823C37.8443 5.71823 36.2973 6.11878 34.9161 6.91989C33.5349 7.69337 32.4437 8.78453 31.6426 10.1934C30.8691 11.6022 30.4824 13.2044 30.4824 15C30.4824 16.7956 30.8691 18.3978 31.6426 19.8066C32.4437 21.2155 33.5349 22.3204 34.9161 23.1215C36.2973 23.895 37.8443 24.2818 39.557 24.2818Z" fill="white"/>
<path d="M80.0715 14.5442H86.2041V26.3122C84.6295 27.5 82.8063 28.4116 80.7345 29.047C78.6626 29.6823 76.577 30 74.4775 30C71.4665 30 68.7593 29.3646 66.356 28.0939C63.9527 26.7956 62.0604 25.0138 60.6792 22.7486C59.3256 20.4558 58.6488 17.8729 58.6488 15C58.6488 12.1271 59.3256 9.55801 60.6792 7.29282C62.0604 5 63.9665 3.21823 66.3974 1.94751C68.8284 0.649171 71.5632 0 74.6019 0C77.1433 0 79.4499 0.428176 81.5218 1.28453C83.5936 2.14088 85.3339 3.38398 86.7427 5.01381L82.4333 8.99171C80.3615 6.80939 77.8615 5.71823 74.9334 5.71823C73.0825 5.71823 71.4389 6.10497 70.0024 6.87845C68.5659 7.65193 67.4472 8.74309 66.6461 10.1519C65.845 11.5608 65.4444 13.1768 65.4444 15C65.4444 16.7956 65.845 18.3978 66.6461 19.8066C67.4472 21.2155 68.5521 22.3204 69.961 23.1215C71.3974 23.895 73.0273 24.2818 74.8505 24.2818C76.7842 24.2818 78.5245 23.8674 80.0715 23.0387V14.5442Z" fill="white"/>
<path d="M106.487 30C103.476 30 100.755 29.3508 98.3236 28.0525C95.9203 26.7541 94.028 24.9724 92.6468 22.7072C91.2932 20.4144 90.6164 17.8453 90.6164 15C90.6164 12.1547 91.2932 9.59945 92.6468 7.33425C94.028 5.04143 95.9203 3.24586 98.3236 1.94751C100.755 0.649171 103.476 0 106.487 0C109.498 0 112.205 0.649171 114.608 1.94751C117.011 3.24586 118.904 5.04143 120.285 7.33425C121.666 9.59945 122.357 12.1547 122.357 15C122.357 17.8453 121.666 20.4144 120.285 22.7072C118.904 24.9724 117.011 26.7541 114.608 28.0525C112.205 29.3508 109.498 30 106.487 30ZM106.487 24.2818C108.199 24.2818 109.746 23.895 111.127 23.1215C112.509 22.3204 113.586 21.2155 114.36 19.8066C115.161 18.3978 115.561 16.7956 115.561 15C115.561 13.2044 115.161 11.6022 114.36 10.1934C113.586 8.78453 112.509 7.69337 111.127 6.91989C109.746 6.11878 108.199 5.71823 106.487 5.71823C104.774 5.71823 103.227 6.11878 101.846 6.91989C100.464 7.69337 99.3733 8.78453 98.5722 10.1934C97.7987 11.6022 97.412 13.2044 97.412 15C97.412 16.7956 97.7987 18.3978 98.5722 19.8066C99.3733 21.2155 100.464 22.3204 101.846 23.1215C103.227 23.895 104.774 24.2818 106.487 24.2818Z" fill="white"/>
</svg>
