<?xml version="1.0" encoding="utf-8"?>
<!-- Generator: Adobe Illustrator 25.2.0, SVG Export Plug-In . SVG Version: 6.00 Build 0)  -->
<svg version="1.1" id="Layer_1" xmlns="http://www.w3.org/2000/svg" xmlns:xlink="http://www.w3.org/1999/xlink" x="0px" y="0px"
	 viewBox="0 0 41 43" style="enable-background:new 0 0 41 43;" xml:space="preserve">
<style type="text/css">
	.st0{fill:#D32F2D;}
</style>
<g>
	<g>
		<path class="st0" d="M39.7,24.8c0.5-1,0.5-2.1,0.1-3.1c-0.8-2-3.1-3.1-5.1-2.3c-0.1,0-0.1,0.1-0.2,0.1c-0.2,0.1-0.5,0.2-0.7,0.4
			c-0.1,0.1-0.2,0.2-0.3,0.3l-0.1,0.1l-0.1,0.1l-0.7,0.8L31,22.7c-1,1-1.9,2.1-2.9,3.1l-0.3,0.3c-0.5-1.3-1.8-2.3-3.2-2.4h-0.3h-1.5
			c-1.2,0-2.3,0-3.5,0.1l-1.7-0.1l-2.7-0.1h-1.4c-0.5,0-1,0-1.5,0.1c-2.1,0.2-4,1.2-5.4,2.8l-0.2-0.7v0c-0.2-0.7-0.9-1.1-1.6-1h0
			c-1.4,0.4-2.8,0.7-4.2,1c-0.2,0.1-0.4,0.3-0.4,0.5c-0.1,0.4,0.2,0.6,0.6,0.7c1.2,0.3,2.4,0.4,3.6,0.2c0.5,2.9,1.1,5.8,2,8.7
			l0.2,1.3c0.2,1,0.4,2.1,0.7,3.1C6.5,40.5,5.7,40.7,5,41c-0.7,0.3-1.3,0.7-1.1,1.3c0.2,0.6,0.8,0.8,1.6,0.7
			c1.2-0.2,2.4-0.4,3.6-0.6c0.6-0.1,1-0.7,0.8-1.3v0l-0.2-0.7c-0.2-0.6-0.3-1.2-0.5-1.7l0.2-0.1c0.5-0.3,1-0.6,1.6-1
			c2.1,0.4,4.1,0.6,6.2,0.6l5.4,0.2H23h0.4c0.3,0,0.5,0,0.8-0.1c1.6-0.2,3.1-0.9,4.2-2c0.2-0.2,0.4-0.3,0.5-0.5l0.5-0.5l1-0.9
			l1.9-1.9c1.3-1.3,2.5-2.6,3.8-3.9l1.9-1.8l0.8-0.7l0.1-0.1l0.1-0.1c0.1-0.1,0.2-0.2,0.3-0.3C39.4,25.3,39.5,25,39.7,24.8z
			 M37.6,23.5c0,0.2-0.1,0.3-0.2,0.5c-0.1,0.1-0.2,0.2-0.3,0.4l-0.2,0.2L32,29.7c-1.5,1.3-3,2.6-4.5,4l-0.6,0.5
			c-0.1,0.1-0.2,0.2-0.2,0.2c-0.1,0.1-0.2,0.1-0.2,0.2c-1,0.7-2.1,1.2-3.3,1.2h-6c-2,0-4,0-6.1,0c-0.3,0-0.7,0.1-0.9,0.4l0,0
			l-1.2,1.1c-0.4-1.2-0.7-2.4-1.1-3.6C7.7,32,7.4,30.2,7,28.5c0.3-0.1,0.6-0.3,0.9-0.6c1.3-1.1,2.9-1.7,4.6-1.8c0.2,0,0.3,0,0.5,0
			h0.6l1.2,0L17,26l4.6-0.2c0.7,0.1,1.4,0.2,2.1,0.2l0.5,0h0.1h0.1c0,0,0.1,0,0.1,0c0.2,0,0.3,0.1,0.5,0.2c0.3,0.2,0.5,0.5,0.5,0.9
			c0.1,0.3,0,0.7-0.2,1c-0.2,0.3-0.5,0.5-0.8,0.5c0,0-0.1,0-0.1,0c0,0-0.1,0-0.2,0h-1.6c-1.4,0-2.8,0-4.2,0c-0.3,0-0.6,0.2-0.8,0.4
			c-0.2,0.3,0.1,0.6,0.5,0.8c1.7,0.7,3.5,1.1,5.4,1.1h0.4c0.1,0,0.3,0,0.5,0c0.4,0,0.8-0.1,1.2-0.2c0.8-0.3,1.4-0.8,1.8-1.6
			c0.2-0.3,0.3-0.7,0.4-1c0.6-0.3,1.1-0.7,1.6-1.2l3.3-3l1.6-1.5l0.4-0.4c0.1-0.1,0.2-0.2,0.2-0.2c0,0,0.1-0.1,0.1-0.1
			c0.4-0.3,1-0.4,1.6-0.2c0.3,0.1,0.6,0.4,0.7,0.7C37.6,22.8,37.7,23.2,37.6,23.5L37.6,23.5z M18.9,16c0.1-2.8,2.5-5,5.3-4.9
			c0.2,0,0.5,0,0.7,0.1c0.9,0.2,1.8,0.6,2.4,1.2c0.7,0.6,1.1,1.4,1.4,2.3c0.1,0.2,0.1,0.4,0.1,0.7c0,0.2-0.1,0.4-0.1,0.5
			c-0.1,0.3-0.4,0.5-0.7,0.5c-0.3,0-0.5-0.1-0.7-0.3c-0.1-0.1-0.2-0.2-0.2-0.3c-0.1-0.1-0.1-0.2-0.2-0.4c-0.4-0.9-1.2-1.5-2.2-1.7
			c-0.9-0.2-1.9,0-2.7,0.6c-0.2,0.2-0.4,0.4-0.6,0.7c-0.5,1.2-0.3,2.5,0.5,3.5c0.9,1,2.3,1.3,3.6,0.8c1.1-0.5,2.1-1.3,2.8-2.4
			c0.2-0.3,0.5-0.6,0.9-0.4c0.2,0.2,0.3,0.5,0.3,0.8c-0.3,1.4-1,2.7-2.1,3.5c-1.1,0.9-2.6,1.3-4,1.1c-1.4-0.2-2.7-0.9-3.6-2
			C18.9,18.7,18.6,17.4,18.9,16z M12.2,8.6c-0.3,0.8-0.2,1.8,0.4,2.5c0.6,0.8,1.7,1,2.6,0.7c0.9-0.4,1.7-1,2.4-1.8
			c0.2-0.3,0.5-0.5,0.8-0.3c0.2,0.2,0.3,0.4,0.3,0.7c-0.2,1.2-0.9,2.3-1.8,3c-1,0.7-2.2,1.1-3.4,1c-1.2-0.1-2.3-0.8-3-1.7
			c-0.7-0.9-0.9-2.1-0.7-3.2c0.1-2.4,2-4.2,4.4-4.2c0.2,0,0.4,0,0.6,0.1c0.8,0.1,1.5,0.5,2.1,1c0.6,0.5,0.9,1.2,1.1,1.9
			c0.1,0.3,0.1,0.7-0.1,1c-0.2,0.2-0.4,0.4-0.7,0.4c-0.3,0-0.5-0.1-0.7-0.2c-0.2-0.1-0.3-0.3-0.4-0.5c-0.3-0.6-0.9-1-1.6-1.2
			c-0.7-0.2-1.4,0-1.9,0.4C12.5,8.2,12.3,8.4,12.2,8.6z M22.3,3.3c-0.3,0.7-0.2,1.6,0.3,2.2c0.6,0.7,1.5,0.9,2.3,0.6
			c0.9-0.3,1.6-0.9,2.3-1.6c0.2-0.2,0.5-0.5,0.8-0.3c0.2,0.1,0.3,0.4,0.3,0.6c-0.2,1.1-0.8,2.1-1.7,2.9c-0.9,0.7-2.1,1-3.2,0.9
			C22.3,8.6,21.2,8,20.6,7C19.9,6.2,19.7,5,20,4c0.1-2.2,1.9-4,4.2-4c0.2,0,0.4,0,0.6,0.1c0.7,0.1,1.4,0.5,2,1
			c0.5,0.5,0.9,1.1,1.1,1.8c0.1,0.3,0.1,0.7-0.1,1c-0.2,0.2-0.4,0.4-0.7,0.4c-0.3,0-0.5-0.1-0.7-0.2c-0.2-0.1-0.3-0.3-0.4-0.4
			c-0.3-0.5-0.8-0.9-1.4-1.1c-0.6-0.1-1.2,0-1.7,0.4C22.5,3,22.4,3.2,22.3,3.3z"/>
	</g>
</g>
</svg>
