<?xml version="1.0" encoding="utf-8"?>
<!-- Generator: Adobe Illustrator 25.2.0, SVG Export Plug-In . SVG Version: 6.00 Build 0)  -->
<svg version="1.1" id="Layer_1" xmlns="http://www.w3.org/2000/svg" xmlns:xlink="http://www.w3.org/1999/xlink" x="0px" y="0px"
	 viewBox="0 0 49 43" style="enable-background:new 0 0 49 43;" xml:space="preserve">
<style type="text/css">
	.st0{fill:#D32F2D;}
</style>
<g>
	<g>
		<path class="st0" d="M44.9,0H3.4C1.5,0,0,1.5,0,3.4V20c0,1.9,1.5,3.4,3.4,3.4h5.4v16c0,2,1.6,3.6,3.6,3.6h23.4
			c2,0,3.6-1.6,3.6-3.6v-16h5.4c1.9,0,3.4-1.5,3.4-3.4V3.4C48.3,1.5,46.7,0,44.9,0z M38.9,11.1c-2.4,0-21.8,0-29.5,0
			c-0.3,0-0.6,0.3-0.6,0.6V15h-2c-0.5,0-0.9-0.4-0.9-0.9V9.4c0-0.5,0.4-0.9,0.9-0.9h34.6c0.5,0,0.9,0.4,0.9,0.9V14
			c0,0.5-0.4,0.9-0.9,0.9h-2v-3.3C39.4,11.4,39.2,11.1,38.9,11.1z M15.6,41.9V12.3h4.6v29.6H15.6z M10,39.4c0-5.6,0-17.8,0-27.2h4.5
			v29.6h-2C11.1,41.9,10,40.8,10,39.4z M38.3,39.4c0,1.4-1.1,2.5-2.5,2.5H21.3V12.3h17C38.3,19,38.3,32.5,38.3,39.4z M47.1,20
			c0,1.3-1,2.3-2.3,2.3h-5.4v-6.2h2c1.1,0,2.1-0.9,2.1-2.1V9.4c0-1.1-0.9-2.1-2.1-2.1H6.8c-1.1,0-2.1,0.9-2.1,2.1V14
			c0,1.1,0.9,2.1,2.1,2.1h2v6.2H3.4c-1.3,0-2.3-1-2.3-2.3V3.4c0-1.3,1-2.3,2.3-2.3h41.4c1.3,0,2.3,1,2.3,2.3V20z"/>
		<path class="st0" d="M29.7,22.9c-2.7,0-4.9,2.2-4.9,4.9c0,1.2,0.4,2.3,1.2,3.2c-0.7,0.9-1.2,2-1.2,3.2c0,2.7,2.2,4.9,4.9,4.9
			c2.7,0,4.9-2.2,4.9-4.9c0-1.2-0.4-2.3-1.2-3.2c0.7-0.9,1.2-2,1.2-3.2C34.6,25.1,32.4,22.9,29.7,22.9z M29.7,24
			c2.1,0,3.8,1.7,3.8,3.8c0,0.9-0.3,1.7-0.8,2.4c-0.9-0.6-1.9-1-3-1c-1,0-2.1,0.3-3,1c-0.5-0.7-0.8-1.5-0.8-2.4
			C25.9,25.7,27.6,24,29.7,24z M29.7,38c-2.1,0-3.8-1.7-3.8-3.8c0-2.1,1.7-3.8,3.8-3.8c2.1,0,3.8,1.7,3.8,3.8
			C33.5,36.3,31.8,38,29.7,38z"/>
	</g>
</g>
</svg>
