<?xml version="1.0" encoding="utf-8"?>
<!-- Generator: Adobe Illustrator 25.2.0, SVG Export Plug-In . SVG Version: 6.00 Build 0)  -->
<svg version="1.1" id="Layer_1" xmlns="http://www.w3.org/2000/svg" xmlns:xlink="http://www.w3.org/1999/xlink" x="0px" y="0px"
	 viewBox="0 0 36 43" style="enable-background:new 0 0 36 43;" xml:space="preserve">
<style type="text/css">
	.st0{fill:#D32F2D;}
</style>
<g>
	<g>
		<path class="st0" d="M4.8,12.5c-1,0-2,0.5-2.5,1.3l-1.7,2.6c-0.6,0.9-0.7,2-0.3,2.9c5.2,12.5,17.4,20.7,30.9,20.8
			c1,0,2-0.5,2.6-1.3l1.7-2.6c0.9-1.4,0.6-3.3-0.8-4.2l-4.5-3c-0.7-0.5-1.6-0.3-2.1,0.4l-0.8,1.2c-1.2,1.7-3.4,2.5-5.5,1.7
			c-4.1-1.5-7.7-4-10.7-7.2c-1.5-1.6-1.6-3.9-0.4-5.7l0.8-1.2c0.5-0.7,0.3-1.7-0.4-2.1l-4.5-3C6,12.7,5.5,12.5,4.8,12.5z M4.8,14
			c0.3,0,0.6,0.1,0.9,0.3l4.5,3l-0.8,1.2c-1.6,2.4-1.3,5.5,0.6,7.6c3.1,3.4,7,6,11.3,7.6c2.7,1,5.7,0.1,7.3-2.3l0.8-1.2l4.5,3
			c0.7,0.5,0.9,1.5,0.4,2.1L32.5,38c-0.3,0.4-0.8,0.7-1.3,0.7c-12.9-0.2-24.5-8-29.5-19.9c-0.2-0.5-0.2-1,0.1-1.5l1.7-2.6
			C3.8,14.3,4.3,14,4.8,14z"/>
		<path class="st0" d="M9.5,34c1.6,5.5,7.4,8.6,12.9,7c0.3-0.1,0.5-0.2,0.8-0.3c0.8,0.2,1.6,0.3,2.4,0.5c-5.6,3.4-12.9,1.6-16.3-3.9
			c-0.9-1.5-1.5-3.1-1.7-4.8C8.2,33,8.8,33.6,9.5,34z"/>
		<path class="st0" d="M8.8,9.4c0.7,1.3,1.2,2.8,1.5,4.2l1.6,1.1c0.1,0.1,0.1,0.1,0.1,0.1c-0.1-0.4-0.1-0.8-0.2-1.2
			c1.7,1.7,3,3.9,3.8,6.2c0.3,0.8,1.2,1.2,1.9,1c0.5-0.2,0.9-0.6,1-1.1C20,13.1,24,7.3,29.6,3.5c-2.5,7.7-2.7,15.9-0.6,23.7
			c0.6-0.1,1.2,0.1,1.7,0.3C28,18.4,28.7,8.6,32.6,0C24.7,3.7,18.9,10.9,17,19.4C15.7,15.2,12.7,11.6,8.8,9.4z"/>
	</g>
</g>
</svg>
