<?xml version="1.0" encoding="utf-8"?>
<!-- Generator: Adobe Illustrator 25.2.0, SVG Export Plug-In . SVG Version: 6.00 Build 0)  -->
<svg version="1.1" id="Layer_1" xmlns="http://www.w3.org/2000/svg" xmlns:xlink="http://www.w3.org/1999/xlink" x="0px" y="0px"
	 viewBox="0 0 63 63" style="enable-background:new 0 0 63 63;" xml:space="preserve">
<style type="text/css">
	.st0{fill:#D32F2D;}
</style>
<g>
	<path class="st0" d="M62.5,31.5c0-17.1-13.9-31-31-31c-5.4,0-10.6,1.4-15.2,4h-3.8v-4h-6v12.7c-3.9,5.3-6,11.7-6,18.3
		c0,17.1,13.9,31,31,31c3.8,0,7.5-0.7,11.1-2c2,1.3,4.4,2,6.9,2c3.1,0,6.1-1.1,8.5-3.2l-1.3-1.5c-2,1.7-4.5,2.7-7.2,2.7
		c-6.1,0-11-4.9-11-11s4.9-11,11-11s11,4.9,11,11c0,2.5-0.8,4.9-2.4,6.9l1.6,1.3c1.8-2.3,2.9-5.2,2.9-8.1c0-2.6-0.8-4.9-2-7
		C61.8,39,62.5,35.3,62.5,31.5z M60.5,30.5h-8.6l7.4-7.4C60,25.5,60.4,28,60.5,30.5z M55.4,15.1L44.3,26.3l1.4,1.4l10.8-10.9
		c0.8,1.3,1.4,2.7,2,4.2l-9.5,9.5h-6.2l1.3-1.3l-1.4-1.4l-2.7,2.7h-6.2l18.8-18.8C53.7,12.8,54.6,13.9,55.4,15.1z M45.9,9.5l1.9-1.9
		c1.2,0.8,2.4,1.8,3.4,2.7L32.5,29.1v-6.2l12.2-12.2l-1.4-1.4L32.5,20.1v-6.2L42,4.5c1.4,0.6,2.8,1.2,4.2,2l-1.6,1.6L45.9,9.5z
		 M32.5,11.1V2.5c2.5,0.1,5,0.5,7.4,1.2L32.5,11.1z M24.5,18.5h2v6h-2V18.5z M22.5,16.5v8h-2v-10h2V16.5z M18.5,12.5v12h-2v-14h2
		V12.5z M14.5,6.5v2v16h-2v-18H14.5z M8.5,2.5h2v2v20h-2V2.5z M10.5,26.5h2h2h2h2h2h2h2h4v-10h-4v-4h-4v-4h-4V6.7
		c4.2-2.6,9-4,14-4.2v28h-28c0.2-4.9,1.5-9.5,4-13.7v9.7H10.5z M2.5,32.5h28v28C15.3,60,3,47.7,2.5,32.5z M49.5,36.5
		c-7.2,0-13,5.8-13,13c0,3.8,1.6,7.1,4.2,9.5c-2.6,0.9-5.4,1.4-8.2,1.5v-28h28c-0.1,2.8-0.6,5.5-1.5,8.2
		C56.6,38.1,53.3,36.5,49.5,36.5z"/>
	<rect x="11" y="42.5" transform="matrix(0.7071 -0.7071 0.7071 0.7071 -25.0473 26.5292)" class="st0" width="17" height="2"/>
	<path class="st0" d="M23.5,44.5c-1.7,0-3,1.3-3,3s1.3,3,3,3s3-1.3,3-3S25.2,44.5,23.5,44.5z M23.5,48.5c-0.6,0-1-0.4-1-1s0.4-1,1-1
		s1,0.4,1,1S24.1,48.5,23.5,48.5z"/>
	<path class="st0" d="M15.5,42.5c1.7,0,3-1.3,3-3s-1.3-3-3-3s-3,1.3-3,3S13.8,42.5,15.5,42.5z M15.5,38.5c0.6,0,1,0.4,1,1
		s-0.4,1-1,1s-1-0.4-1-1S14.9,38.5,15.5,38.5z"/>
	<path class="st0" d="M49.5,44.5c1.1,0,2,0.9,2,2h2c0-1.9-1.3-3.4-3-3.9v-2.1h-2v2.1c-1.7,0.4-3,2-3,3.9c0,2.2,1.8,4,4,4
		c1.1,0,2,0.9,2,2s-0.9,2-2,2s-2-0.9-2-2h-2c0,1.9,1.3,3.4,3,3.9v2.1h2v-2.1c1.7-0.4,3-2,3-3.9c0-2.2-1.8-4-4-4c-1.1,0-2-0.9-2-2
		S48.4,44.5,49.5,44.5z"/>
	<rect x="56.5" y="48.5" class="st0" width="2" height="2"/>
	<rect x="40.5" y="48.5" class="st0" width="2" height="2"/>
</g>
</svg>
