<?xml version="1.0" encoding="utf-8"?>
<!-- Generator: Adobe Illustrator 25.2.0, SVG Export Plug-In . SVG Version: 6.00 Build 0)  -->
<svg version="1.1" id="Layer_1" xmlns="http://www.w3.org/2000/svg" xmlns:xlink="http://www.w3.org/1999/xlink" x="0px" y="0px"
	 viewBox="0 0 44 43" style="enable-background:new 0 0 44 43;" xml:space="preserve">
<style type="text/css">
	.st0{fill:#D32F2D;}
</style>
<g>
	<g>
		<path class="st0" d="M43,41c0-0.1,0-0.2-0.1-0.2h0l-1.4-1.4c-0.2-0.2-0.5-0.1-0.6,0.1c-0.1,0.2-0.1,0.4,0,0.6l0.7,0.7h-2.5V11.1
			c0-0.3-0.2-0.5-0.5-0.5h-4.1c-0.3,0-0.5,0.2-0.5,0.5v29.5h-2.1V17.2c0-0.3-0.2-0.5-0.5-0.5h-4.1c-0.3,0-0.5,0.2-0.5,0.5v23.4h-2.1
			V23.3c0-0.3-0.2-0.5-0.5-0.5h-4.1c-0.3,0-0.5,0.2-0.5,0.5v17.3h-2.1V29.4c0-0.3-0.2-0.5-0.5-0.5h-4.1c-0.3,0-0.5,0.2-0.5,0.5v11.2
			h-2.1v-5.1c0-0.3-0.2-0.5-0.5-0.5H6c-0.3,0-0.5,0.2-0.5,0.5v5.1H2.4V27.1C14.3,25,27.7,20.3,37.4,1.7l0.4,1
			c0.1,0.2,0.3,0.4,0.6,0.3c0.2-0.1,0.4-0.3,0.3-0.6c0,0,0-0.1,0-0.1l-0.7-1.9c0-0.1-0.1-0.1-0.1-0.2c-0.1-0.1-0.3-0.2-0.5-0.1
			l-1.9,0.8c-0.2,0.1-0.3,0.4-0.1,0.6c0.1,0.2,0.3,0.2,0.5,0.2l0.8-0.3C27,19.5,14,24.1,2.4,26.1V1.6L3,2.2c0.2,0.2,0.5,0.2,0.6,0
			C3.8,2.2,3.8,2,3.8,1.9c0-0.1-0.1-0.2-0.1-0.3L2.3,0.1C2.2,0.1,2.1,0,2,0H1.8C1.8,0,1.7,0,1.6,0.1l0,0L0.1,1.6C0,1.8,0,2,0.1,2.2
			c0.2,0.2,0.5,0.2,0.7,0l0.7-0.7v39.5c0,0.3,0.2,0.5,0.5,0.5h39.5l-0.7,0.7c-0.1,0.1-0.1,0.2-0.1,0.3c0,0.3,0.2,0.5,0.5,0.5
			c0.1,0,0.2-0.1,0.3-0.1l1.4-1.4C42.9,41.3,43,41.2,43,41C43,41.1,43,41.1,43,41z M6.4,40.6V36h3.2v4.7H6.4z M13.5,40.6V29.9h3.2
			v10.8H13.5z M20.7,40.6V23.8h3.2v16.9H20.7z M27.8,40.6v-23h3.1v23H27.8z M34.9,40.6V11.6H38v29.1H34.9z M7.3,11.6h13.8
			c0.3,0,0.5-0.2,0.5-0.5V4.3c0-0.3-0.2-0.5-0.5-0.5H7.3C7,3.8,6.8,4.1,6.8,4.3v6.9C6.8,11.4,7,11.6,7.3,11.6z M7.8,4.8h12.8v6H7.8
			V4.8z M9.6,5.9v3.7c0,0.3-0.2,0.5-0.5,0.5c-0.3,0-0.5-0.2-0.5-0.5V5.9c0-0.3,0.2-0.5,0.5-0.5C9.4,5.5,9.6,5.7,9.6,5.9z M17.8,5.5
			c-1,0-1.8,0.8-1.8,1.8v0.9c0,1,0.8,1.8,1.8,1.8c1,0,1.8-0.8,1.8-1.8V7.3C19.7,6.3,18.9,5.5,17.8,5.5z M18.8,8.2
			c0,0.5-0.4,0.9-0.9,0.9c-0.5,0-0.9-0.4-0.9-0.9V7.3c0-0.5,0.4-0.9,0.9-0.9c0.5,0,0.9,0.4,0.9,0.9V8.2z M13,5.5h-1.1
			c-0.3,0-0.5,0.2-0.5,0.5v3.7c0,0.3,0.2,0.5,0.5,0.5c0.3,0,0.5-0.2,0.5-0.5V8.7H13c0.9,0,1.6-0.7,1.6-1.6C14.6,6.2,13.9,5.5,13,5.5
			z M13,7.7h-0.7V6.4H13c0.4,0,0.7,0.3,0.7,0.7S13.4,7.7,13,7.7z"/>
	</g>
</g>
</svg>
