<?xml version="1.0" encoding="utf-8"?>
<!-- Generator: Adobe Illustrator 25.2.0, SVG Export Plug-In . SVG Version: 6.00 Build 0)  -->
<svg version="1.1" id="Layer_1" xmlns="http://www.w3.org/2000/svg" xmlns:xlink="http://www.w3.org/1999/xlink" x="0px" y="0px"
	 viewBox="0 0 44 43" style="enable-background:new 0 0 44 43;" xml:space="preserve">
<style type="text/css">
	.st0{fill:#D32F2D;}
</style>
<g>
	<g>
		<path class="st0" d="M16.4,13L13.7,16c-1.4,1.6-2.2,3.7-2.2,5.8v0.6c0,4.7,3.9,8.6,8.6,8.6s8.6-3.9,8.6-8.6v-0.6
			c0-2.2-0.8-4.2-2.2-5.8l-0.1-0.1h0.2c1.2,0,2.2-0.9,2.2-2.2V2.2c0-1.2-0.9-2.2-2.2-2.2h-8.1C18,0,17.4,0.2,17,0.6l-2.2,2.2H0v1.4
			h7.9v7.2H0v1.4h16.3L16.4,13z M25.9,8.6h1.4v1.4h-0.7c-0.4,0-0.7-0.3-0.7-0.7V8.6z M25.9,7.2V5h1.4v2.2H25.9z M27.3,2.2v1.4h-1.4
			V1.4h0.7C27,1.4,27.3,1.7,27.3,2.2z M18,1.7c0.1-0.1,0.4-0.2,0.5-0.2h1.6c0.4,0,0.7,0.3,0.7,0.7V5c0,0.4-0.3,0.7-0.7,0.7
			c-0.4,0-0.7-0.3-0.7-0.7V3.6H18V5c0,1.2,0.9,2.2,2.2,2.2c1.2,0,2.2-0.9,2.2-2.2V2.2c0-0.2-0.1-0.5-0.1-0.7h2.3v7.9
			c0,1.2,0.9,2.2,2.2,2.2h0.7v2.2c0,0.4-0.3,0.7-0.7,0.7h-1.4v0.1l-2.8-3.1L23,8.8l-1.4-0.4l-0.8,3.2l4.7,5.2c1.2,1.3,1.9,3,1.9,4.8
			v0.5c0,4-3.2,7.2-7.2,7.2c-4,0-7.2-3.2-7.2-7.2v-0.6c0-1.8,0.6-3.5,1.9-4.8l4.7-5.2l-0.8-3.2l-1.4,0.3l0.6,2.5l-0.6,0.6l-0.5-0.4
			h-1V3.9L18,1.7z M9.3,4.3h1.4v2.9h1.4V4.3h2.2v7.2h-5V4.3z"/>
		<path class="st0" d="M12.2,8.6h-1.4v1.4h1.4V8.6z"/>
		<path class="st0" d="M40.3,36h-1.4v1.4h1.4V36z"/>
		<path class="st0" d="M33.9,25.7c-0.9-0.8-2.2-0.8-3,0l-4.5,4.5c-0.9,0.9-0.9,2.2,0,3l1.4,1.4l-0.9,0.9c-0.2,0.2-0.5,0.3-0.8,0.1
			L11,29c-1.1-0.5-2.4,0-2.9,1.1c-0.1,0.3-0.2,0.6-0.2,0.9v1.2c0,0.8,0.4,1.5,1.2,1.9l16.7,8.7c0.3,0.1,0.6,0.2,1,0.2
			c0.2,0,0.4,0,0.6-0.1l9.4-2.7h6.4V28.8H37L33.9,25.7z M27,41.6c-0.1,0.1-0.4,0-0.5-0.1L9.7,32.9c-0.2-0.1-0.4-0.4-0.4-0.6V31
			c0-0.4,0.3-0.7,0.7-0.7c0.1,0,0.2,0,0.3,0.1l15,6.6c0.8,0.4,1.8,0.2,2.4-0.4l5-5l-1-1l-3,3l-1.4-1.4c-0.3-0.3-0.3-0.7,0-1l4.5-4.5
			c0.3-0.3,0.7-0.3,1,0l3.1,3.1V39L27,41.6z M37.4,30.2h1.4v4.3h1.4v-4.3h1.4v8.6h-4.3V30.2z"/>
		<path class="st0" d="M22.5,17.5L16,24l1,1l6.5-6.5L22.5,17.5z"/>
		<path class="st0" d="M20.1,17.3h-1.4v1.4h1.4V17.3z"/>
		<path class="st0" d="M20.9,23.7h-1.4v1.4h1.4V23.7z"/>
		<path class="st0" d="M36.7,10.8h-1.4v2.2h1.4V10.8z"/>
		<path class="st0" d="M35.2,12.9h-2.2v1.4h2.2V12.9z"/>
		<path class="st0" d="M36.7,14.4h-1.4v2.2h1.4V14.4z"/>
		<path class="st0" d="M38.8,12.9h-2.2v1.4h2.2V12.9z"/>
		<path class="st0" d="M5,20.9H3.6V23H5V20.9z"/>
		<path class="st0" d="M3.6,23H1.4v1.4h2.2V23z"/>
		<path class="st0" d="M5,24.4H3.6v2.2H5V24.4z"/>
		<path class="st0" d="M7.2,23H5v1.4h2.2V23z"/>
		<path class="st0" d="M35.2,20.1h-1.4v1.4h1.4V20.1z"/>
		<path class="st0" d="M33.8,21.6h-1.4V23h1.4V21.6z"/>
		<path class="st0" d="M35.2,23h-1.4v1.4h1.4V23z"/>
		<path class="st0" d="M36.7,21.6h-1.4V23h1.4V21.6z"/>
	</g>
</g>
</svg>
