<svg width="153" height="38" viewBox="0 0 153 38" fill="none" xmlns="http://www.w3.org/2000/svg">
<path d="M0 0.623998H8.424V30.16H26.676V37.024H0V0.623998Z" fill="#1A1A1A"/>
<path d="M48.4014 37.648C44.6228 37.648 41.2081 36.8333 38.1574 35.204C35.1414 33.5747 32.7668 31.3387 31.0334 28.496C29.3348 25.6187 28.4854 22.3947 28.4854 18.824C28.4854 15.2533 29.3348 12.0467 31.0334 9.204C32.7668 6.32666 35.1414 4.07333 38.1574 2.444C41.2081 0.814666 44.6228 0 48.4014 0C52.1801 0 55.5774 0.814666 58.5934 2.444C61.6094 4.07333 63.9841 6.32666 65.7174 9.204C67.4508 12.0467 68.3174 15.2533 68.3174 18.824C68.3174 22.3947 67.4508 25.6187 65.7174 28.496C63.9841 31.3387 61.6094 33.5747 58.5934 35.204C55.5774 36.8333 52.1801 37.648 48.4014 37.648ZM48.4014 30.472C50.5508 30.472 52.4921 29.9867 54.2254 29.016C55.9588 28.0107 57.3108 26.624 58.2814 24.856C59.2868 23.088 59.7894 21.0773 59.7894 18.824C59.7894 16.5707 59.2868 14.56 58.2814 12.792C57.3108 11.024 55.9588 9.65467 54.2254 8.684C52.4921 7.67867 50.5508 7.176 48.4014 7.176C46.2521 7.176 44.3108 7.67867 42.5774 8.684C40.8441 9.65467 39.4748 11.024 38.4694 12.792C37.4988 14.56 37.0134 16.5707 37.0134 18.824C37.0134 21.0773 37.4988 23.088 38.4694 24.856C39.4748 26.624 40.8441 28.0107 42.5774 29.016C44.3108 29.9867 46.2521 30.472 48.4014 30.472Z" fill="#1A1A1A"/>
<path d="M99.2444 18.252H106.94V33.02C104.964 34.5107 102.676 35.6547 100.076 36.452C97.4764 37.2493 94.8591 37.648 92.2244 37.648C88.4458 37.648 85.0484 36.8507 82.0324 35.256C79.0164 33.6267 76.6418 31.3907 74.9084 28.548C73.2098 25.6707 72.3604 22.4293 72.3604 18.824C72.3604 15.2187 73.2098 11.9947 74.9084 9.152C76.6418 6.27466 79.0338 4.03867 82.0844 2.444C85.1351 0.814666 88.5671 0 92.3804 0C95.5698 0 98.4644 0.537332 101.064 1.612C103.664 2.68667 105.848 4.24667 107.616 6.292L102.208 11.284C99.6084 8.54533 96.4711 7.176 92.7964 7.176C90.4738 7.176 88.4111 7.66133 86.6084 8.632C84.8058 9.60267 83.4018 10.972 82.3964 12.74C81.3911 14.508 80.8884 16.536 80.8884 18.824C80.8884 21.0773 81.3911 23.088 82.3964 24.856C83.4018 26.624 84.7884 28.0107 86.5564 29.016C88.3591 29.9867 90.4044 30.472 92.6924 30.472C95.1191 30.472 97.3031 29.952 99.2444 28.912V18.252Z" fill="#1A1A1A"/>
<path d="M132.394 37.648C128.615 37.648 125.2 36.8333 122.15 35.204C119.134 33.5747 116.759 31.3387 115.026 28.496C113.327 25.6187 112.478 22.3947 112.478 18.824C112.478 15.2533 113.327 12.0467 115.026 9.204C116.759 6.32666 119.134 4.07333 122.15 2.444C125.2 0.814666 128.615 0 132.394 0C136.172 0 139.57 0.814666 142.586 2.444C145.602 4.07333 147.976 6.32666 149.71 9.204C151.443 12.0467 152.31 15.2533 152.31 18.824C152.31 22.3947 151.443 25.6187 149.71 28.496C147.976 31.3387 145.602 33.5747 142.586 35.204C139.57 36.8333 136.172 37.648 132.394 37.648ZM132.394 30.472C134.543 30.472 136.484 29.9867 138.218 29.016C139.951 28.0107 141.303 26.624 142.274 24.856C143.279 23.088 143.782 21.0773 143.782 18.824C143.782 16.5707 143.279 14.56 142.274 12.792C141.303 11.024 139.951 9.65467 138.218 8.684C136.484 7.67867 134.543 7.176 132.394 7.176C130.244 7.176 128.303 7.67867 126.57 8.684C124.836 9.65467 123.467 11.024 122.462 12.792C121.491 14.56 121.006 16.5707 121.006 18.824C121.006 21.0773 121.491 23.088 122.462 24.856C123.467 26.624 124.836 28.0107 126.57 29.016C128.303 29.9867 130.244 30.472 132.394 30.472Z" fill="#1A1A1A"/>
</svg>
