<?xml version="1.0" encoding="utf-8"?>
<!-- Generator: Adobe Illustrator 25.2.0, SVG Export Plug-In . SVG Version: 6.00 Build 0)  -->
<svg version="1.1" id="Layer_1" xmlns="http://www.w3.org/2000/svg" xmlns:xlink="http://www.w3.org/1999/xlink" x="0px" y="0px"
	 viewBox="0 0 43 43" style="enable-background:new 0 0 43 43;" xml:space="preserve">
<style type="text/css">
	.st0{fill:#D32F2D;}
</style>
<g>
	<g>
		<path class="st0" d="M21.2,6.6c1.8,0,3.3-1.5,3.3-3.3S23,0,21.2,0c-1.8,0-3.3,1.5-3.3,3.3S19.3,6.6,21.2,6.6z M21.2,1.3
			c1.1,0,2,0.9,2,2s-0.9,2-2,2c-1.1,0-2-0.9-2-2S20.1,1.3,21.2,1.3z"/>
		<path class="st0" d="M21.2,7.3c-3.6,0-6.6,3-6.6,6.6c0,0.4,0.3,0.7,0.7,0.7h11.9c0.4,0,0.7-0.3,0.7-0.7
			C27.8,10.2,24.8,7.3,21.2,7.3z M15.9,13.2c0.3-2.6,2.6-4.6,5.3-4.6s4.9,2,5.3,4.6H15.9z"/>
		<path class="st0" d="M6.6,30.4c1.8,0,3.3-1.5,3.3-3.3c0-1.8-1.5-3.3-3.3-3.3s-3.3,1.5-3.3,3.3C3.3,28.9,4.8,30.4,6.6,30.4z
			 M6.6,25.1c1.1,0,2,0.9,2,2c0,1.1-0.9,2-2,2s-2-0.9-2-2C4.6,26,5.5,25.1,6.6,25.1z"/>
		<path class="st0" d="M6.6,31.1c-3.6,0-6.6,3-6.6,6.6c0,0.4,0.3,0.7,0.7,0.7h11.9c0.4,0,0.7-0.3,0.7-0.7
			C13.2,34.1,10.3,31.1,6.6,31.1z M1.4,37c0.3-2.6,2.6-4.6,5.3-4.6c2.7,0,4.9,2,5.3,4.6H1.4z"/>
		<path class="st0" d="M32.4,27.1c0,1.8,1.5,3.3,3.3,3.3c1.8,0,3.3-1.5,3.3-3.3c0-1.8-1.5-3.3-3.3-3.3
			C33.9,23.8,32.4,25.3,32.4,27.1z M37.7,27.1c0,1.1-0.9,2-2,2c-1.1,0-2-0.9-2-2c0-1.1,0.9-2,2-2C36.8,25.1,37.7,26,37.7,27.1z"/>
		<path class="st0" d="M35.7,31.1c-3.6,0-6.6,3-6.6,6.6c0,0.4,0.3,0.7,0.7,0.7h11.9c0.4,0,0.7-0.3,0.7-0.7
			C42.3,34.1,39.4,31.1,35.7,31.1z M30.5,37c0.3-2.6,2.6-4.6,5.3-4.6c2.7,0,4.9,2,5.3,4.6H30.5z"/>
		<path class="st0" d="M13.3,12.6C13.3,12.6,13.3,12.5,13.3,12.6c0-0.1,0-0.1,0-0.1c0,0,0-0.1,0-0.1c0,0,0-0.1,0-0.1c0,0,0,0,0,0
			c0,0,0,0,0,0c0,0,0,0,0,0c0,0,0-0.1-0.1-0.1c0,0,0,0,0,0c0,0,0,0-0.1,0c0,0-0.1,0-0.1,0c0,0,0,0,0,0c0,0-0.1,0-0.1,0
			c0,0,0,0-0.1,0H9.9c-0.4,0-0.7,0.3-0.7,0.7c0,0.4,0.3,0.7,0.7,0.7h0.7C8,15.3,6,18.2,5,21.4c-0.1,0.3,0.1,0.7,0.4,0.8
			c0.1,0,0.1,0,0.2,0c0.3,0,0.5-0.2,0.6-0.5c1-3,2.8-5.7,5.3-7.7l-0.1,0.6c-0.1,0.4,0.1,0.7,0.5,0.8c0.1,0,0.1,0,0.2,0
			c0.3,0,0.6-0.2,0.6-0.5l0.6-2.3C13.3,12.7,13.3,12.7,13.3,12.6C13.3,12.6,13.3,12.6,13.3,12.6z"/>
		<path class="st0" d="M26.7,39.6c-3,1.1-6.3,1.3-9.3,0.5l0.6-0.3c0.3-0.1,0.5-0.5,0.3-0.9c-0.1-0.3-0.5-0.5-0.9-0.3l-2.2,1
			c0,0,0,0,0,0c0,0,0,0,0,0c0,0,0,0-0.1,0c0,0,0,0,0,0c0,0,0,0,0,0c0,0,0,0,0,0.1c0,0,0,0.1-0.1,0.1c0,0,0,0,0,0c0,0,0,0,0,0
			c0,0,0,0,0,0c0,0,0,0.1,0,0.1c0,0,0,0,0,0.1c0,0,0,0,0,0.1c0,0,0,0.1,0,0.1c0,0,0,0,0,0c0,0,0,0,0,0c0,0,0,0,0,0
			c0,0,0,0.1,0.1,0.1c0,0,0,0,0,0l1.7,2.2c0.1,0.2,0.3,0.3,0.5,0.3c0.1,0,0.3,0,0.4-0.1c0.3-0.2,0.3-0.6,0.1-0.9l-0.4-0.5
			c1.3,0.3,2.6,0.5,3.9,0.5c2,0,4-0.4,5.9-1.1c0.3-0.1,0.5-0.5,0.4-0.9C27.4,39.6,27,39.4,26.7,39.6z"/>
		<path class="st0" d="M29.3,13.1c2.7,1.7,4.9,4.1,6.1,7l-0.6-0.3c-0.3-0.2-0.7,0-0.9,0.3c-0.2,0.3,0,0.7,0.3,0.9l2.1,1.1
			c0,0,0,0,0.1,0c0,0,0,0,0.1,0c0,0,0,0,0,0h0c0,0,0.1,0,0.2,0h0c0.1,0,0.1,0,0.2,0c0,0,0,0,0,0c0,0,0,0,0,0c0,0,0,0,0,0
			c0,0,0.1,0,0.1-0.1c0,0,0,0,0,0c0,0,0,0,0,0c0,0,0-0.1,0.1-0.1c0,0,0,0,0-0.1c0,0,0,0,0,0c0,0,0,0,0-0.1c0,0,0-0.1,0-0.1l0.7-2.7
			c0.1-0.4-0.1-0.7-0.5-0.8c-0.4-0.1-0.7,0.1-0.8,0.5l-0.2,0.7c-1.4-3.1-3.7-5.7-6.6-7.4c-0.3-0.2-0.7-0.1-0.9,0.2
			C28.9,12.5,29,12.9,29.3,13.1z"/>
		<path class="st0" d="M19.6,19.8c-2.2,0-4,1.8-4,4c0,0.4,0.3,0.7,0.7,0.7c0.4,0,0.7-0.3,0.7-0.7c0-1.5,1.2-2.6,2.6-2.6
			c0.4,0,0.7-0.3,0.7-0.7C20.3,20.1,20,19.8,19.6,19.8z"/>
		<path class="st0" d="M24.3,27.5c1.9-2.3,1.7-5.8-0.4-7.9c-1.1-1.1-2.6-1.7-4.2-1.7c-1.6,0-3.1,0.6-4.2,1.7
			c-1.1,1.1-1.7,2.6-1.7,4.2c0,1.6,0.6,3.1,1.7,4.2c1.1,1.1,2.6,1.7,4.2,1.7c1.4,0,2.7-0.5,3.7-1.3l3.3,3.3c0.1,0.1,0.3,0.2,0.5,0.2
			s0.3-0.1,0.5-0.2c0.3-0.3,0.3-0.7,0-0.9L24.3,27.5z M19.6,28.4c-1.2,0-2.4-0.5-3.3-1.4c-0.9-0.9-1.4-2-1.4-3.3
			c0-1.2,0.5-2.4,1.4-3.3c0.9-0.9,2-1.4,3.3-1.4c1.2,0,2.4,0.5,3.3,1.4c1.8,1.8,1.8,4.7,0,6.5C22,28,20.9,28.4,19.6,28.4z"/>
	</g>
</g>
</svg>
