<?xml version="1.0" encoding="utf-8"?>
<!-- Generator: Adobe Illustrator 25.2.0, SVG Export Plug-In . SVG Version: 6.00 Build 0)  -->
<svg version="1.1" id="Layer_1" xmlns="http://www.w3.org/2000/svg" xmlns:xlink="http://www.w3.org/1999/xlink" x="0px" y="0px"
	 viewBox="0 0 43 43" style="enable-background:new 0 0 43 43;" xml:space="preserve">
<style type="text/css">
	.st0{fill:#D32F2D;}
</style>
<g>
	<g>
		<path class="st0" d="M22.7,12.9H9.8c-1.6,0-2.9,1.3-2.9,2.9v5.7H4.8c-1.6,0-2.9,1.3-2.9,2.9v6.2L0,32.5l1,1l2.1-2.1
			c0.1-0.1,0.2-0.3,0.2-0.5v-6.4c0-0.8,0.6-1.4,1.4-1.4H7v1.9L5.7,26l1,1l3.2-3.2c0.3-0.3,0.8-0.3,1.1,0c0.3,0.3,0.3,0.8,0,1.1
			l-3.2,3.2c-0.3,0.3-0.3,0.7,0,1c1.3,1.3,1.3,3.4,0,4.7l-3.6,3.6l1,1L7,36.8v3.3C7,41.7,8.2,43,9.8,43h12.9c1.6,0,2.9-1.3,2.9-2.9
			V15.8C25.6,14.2,24.3,12.9,22.7,12.9z M24.2,40.1c0,0.8-0.6,1.4-1.4,1.4H9.8c-0.8,0-1.4-0.6-1.4-1.4v-4.7l0.5-0.5
			c1.7-1.7,1.9-4.3,0.5-6.2l2.8-2.8c0.9-0.9,0.9-2.3,0-3.2c-0.9-0.9-2.3-0.9-3.1,0l-0.6,0.6v-7.6c0-0.8,0.6-1.4,1.4-1.4h12.9
			c0.8,0,1.4,0.6,1.4,1.4L24.2,40.1L24.2,40.1z"/>
		<path class="st0" d="M15.6,15.8h-1.4v1.4h1.4V15.8z"/>
		<path class="st0" d="M18.4,15.8H17v1.4h1.4V15.8z"/>
		<path class="st0" d="M17,38.7h-1.4v1.4H17V38.7z"/>
		<path class="st0" d="M35.6,15h-2.9c-0.4,0-0.7,0.3-0.7,0.6L31.4,20l-4.5,0.7l0.2,1.4l5-0.8c0.3-0.1,0.5-0.3,0.6-0.6l0.2-1.4h1.9
			v21.5c0,0.4-0.3,0.7-0.7,0.7H27V43h7.2c1.2,0,2.1-1,2.1-2.1V15.8C36.3,15.4,36,15,35.6,15z M33.2,17.9l0.2-1.4h1.5v1.4H33.2z"/>
		<path class="st0" d="M27,38.7h4.3c0.4,0,0.7-0.3,0.7-0.7V26.5c0-0.4-0.3-0.7-0.7-0.7H27v1.4h3.6v10H27V38.7z"/>
		<path class="st0" d="M29.2,34.4h-1.4v1.4h1.4V34.4z"/>
		<path class="st0" d="M24.9,0.7c0-0.4-0.3-0.7-0.7-0.7h-4.3c-0.4,0-0.7,0.3-0.7,0.7v2.1h-5v1.4h1.4v1.4h-1.4v1.4h1.4v4.3H17V7.2
			h22.9v12.2h-2.1v1.4h2.1v1.4h-2.1v1.4h2.1v12.9h-2.1V38h2.1v1.4h-2.1v1.4h5v-1.4h-1.4V38h1.4v-1.4h-1.4V23.6h1.4v-1.4h-1.4v-1.4
			h1.4v-1.4h-1.4V7.2h1.4V5.7h-1.4V4.3h1.4V2.9H24.9V0.7z M20.6,1.4h2.9v1.4h-2.9L20.6,1.4L20.6,1.4z M39.9,5.7H17V4.3h22.9V5.7z"/>
		<path class="st0" d="M21.3,22.2h-1.4v13.6h-1.4v-7.2H17v7.2h-1.4v-9.3h-1.4v9.3h-1.4v-2.1h-1.4v2.1H9.8v1.4h12.9v-1.4h-1.4V22.2z"
			/>
	</g>
</g>
</svg>
