<?xml version="1.0" encoding="utf-8"?>
<!-- Generator: Adobe Illustrator 25.2.0, SVG Export Plug-In . SVG Version: 6.00 Build 0)  -->
<svg version="1.1" id="Layer_1" xmlns="http://www.w3.org/2000/svg" xmlns:xlink="http://www.w3.org/1999/xlink" x="0px" y="0px"
	 viewBox="0 0 25 43" style="enable-background:new 0 0 25 43;" xml:space="preserve">
<style type="text/css">
	.st0{fill:#D32F2D;}
</style>
<g>
	<g>
		<path class="st0" d="M10.9,35.5c-0.2,0-0.4-0.1-0.6-0.2l-3.8-3.8c-0.3-0.3-0.3-0.8,0-1.2c0.3-0.3,0.8-0.3,1.2,0l2.9,2.9l5.1-12.3
			c0.2-0.4,0.7-0.6,1.1-0.4c0.4,0.2,0.6,0.7,0.4,1.1l-5.6,13.5c-0.1,0.3-0.3,0.4-0.6,0.5C11,35.5,11,35.5,10.9,35.5z"/>
		<path class="st0" d="M23.9,13.9l-7-4.5c0.4-0.9,0.6-1.9,0.6-2.9c0-3.5-2.4-6.5-5.3-6.5S6.8,2.9,6.8,6.5c0,1,0.2,2,0.6,2.9l-7,4.5
			C0.2,14.1,0,14.3,0,14.6v27.5C0,42.6,0.4,43,0.8,43h22.5c0.4,0,0.8-0.4,0.8-0.8V14.6C24.3,14.3,24.1,14.1,23.9,13.9z M8.5,6.5
			c0-2.6,1.6-4.8,3.7-4.8s3.7,2.1,3.7,4.8c0,0.7-0.1,1.4-0.3,2l-2.9-1.9c-0.3-0.2-0.6-0.2-0.9,0L8.9,8.4C8.7,7.8,8.5,7.1,8.5,6.5z
			 M22.6,41.3H1.8V15.1l7.1-4.6l3.3-2.2l2.5,1.6c-0.2,0.3-0.5,0.6-0.8,0.7c-0.4-0.3-1.1-0.6-1.7-0.6c-0.8,0-1.6,0.4-2.1,1
			c-0.1,0.1-0.1,0.1-0.2,0.2c-0.3,0.4-0.5,1-0.5,1.6c0,1.6,1.2,2.8,2.8,2.8c1.6,0,2.8-1.2,2.8-2.8c0-0.3-0.1-0.6-0.2-0.8
			c0.4-0.3,0.9-0.7,1.2-1.2l6.5,4.2L22.6,41.3L22.6,41.3z M13.3,12.9c0,0.6-0.5,1.1-1.1,1.1c-0.6,0-1.1-0.5-1.1-1.1
			c0-0.1,0-0.1,0-0.2c0.3,0.1,0.7,0.2,1.1,0.2s0.7-0.1,1.1-0.2C13.3,12.8,13.3,12.9,13.3,12.9z"/>
	</g>
</g>
</svg>
